<svg xmlns="http://www.w3.org/2000/svg" viewBox="0 0 1920 1080" role="img" aria-hidden="true"><rect x="0" y="0" width="1920" height="1080" rx="0" fill="#ecf0f5" /><rect x="240" y="190" width="1440" height="650" rx="36" fill="#ffffff" stroke="#d3dae0" stroke-width="5"/><rect x="320" y="550" width="56" height="150" rx="10" fill="#2377da" /><rect x="410" y="440" width="56" height="260" rx="10" fill="#3a91ee" /><rect x="500" y="500" width="56" height="200" rx="10" fill="#2377da" /><rect x="590" y="360" width="56" height="340" rx="10" fill="#3a91ee" /><rect x="680" y="420" width="56" height="280" rx="10" fill="#2377da" /><rect x="770" y="300" width="56" height="400" rx="10" fill="#3a91ee" /><path d="M330 420 C500 360 560 480 720 400 C860 330 940 460 1100 380" stroke="#ffcd3b" stroke-width="16" stroke-linecap="round" stroke-linejoin="round" fill="none" /><rect x="1180" y="260" width="410" height="150" rx="20" fill="#f1f5f8" /><rect x="1210" y="290" width="150" height="20" rx="10" fill="#d3dae0" /><rect x="1210" y="330" width="260" height="40" rx="10" fill="#2377da" /><circle cx="1290" cy="590" r="110" fill="#d3dae0" /><path d="M1290 480 A110 110 0 1 1 1190 636" stroke="#2377da" stroke-width="40" stroke-linecap="round" stroke-linejoin="round" fill="none" /><circle cx="1290" cy="590" r="56" fill="#ffffff" /><circle cx="1520" cy="520" r="44" fill="#ffcd3b" /><rect x="1500" y="560" width="40" height="16" rx="8" fill="#ffcd3b" /></svg>