<svg xmlns="http://www.w3.org/2000/svg" viewBox="0 0 1920 1080" role="img" aria-hidden="true"><rect x="0" y="0" width="1920" height="1080" rx="0" fill="#ecf0f5" /><rect x="0" y="860" width="1920" height="220" rx="0" fill="#dde2e7" /><rect x="300" y="250" width="1000" height="520" rx="28" fill="#1f2c39" /><rect x="327" y="277" width="946" height="466" rx="8" fill="#ffffff" /><rect x="357" y="307" width="300" height="150" rx="14" fill="#f1f5f8" /><rect x="382" y="332" width="110" height="24" rx="12" fill="#2377da" /><rect x="382" y="382" width="190" height="20" rx="10" fill="#d3dae0" /><rect x="687" y="307" width="300" height="150" rx="14" fill="#f1f5f8" /><rect x="712" y="332" width="135" height="24" rx="12" fill="#ffcd3b" /><rect x="712" y="382" width="190" height="20" rx="10" fill="#d3dae0" /><rect x="357" y="487" width="300" height="150" rx="14" fill="#f1f5f8" /><rect x="382" y="512" width="160" height="24" rx="12" fill="#3a91ee" /><rect x="382" y="562" width="190" height="20" rx="10" fill="#d3dae0" /><rect x="687" y="487" width="300" height="150" rx="14" fill="#f1f5f8" /><rect x="712" y="512" width="185" height="24" rx="12" fill="#a4afbb" /><rect x="712" y="562" width="190" height="20" rx="10" fill="#d3dae0" /><circle cx="1173" cy="352" r="30" fill="#2377da" /><rect x="1211" y="343" width="30" height="16" rx="8" fill="#d3dae0" /><circle cx="1173" cy="452" r="30" fill="#ffcd3b" /><rect x="1211" y="443" width="30" height="16" rx="8" fill="#d3dae0" /><circle cx="1173" cy="552" r="30" fill="#1f2c39" /><rect x="1211" y="543" width="30" height="16" rx="8" fill="#d3dae0" /><rect x="737" y="770" width="126" height="70" rx="0" fill="#a4afbb" /><rect x="710" y="838" width="180" height="24" rx="12" fill="#a4afbb" /><path d="M1360 560 A144 144 0 0 1 1648 560" stroke="#252d3a" stroke-width="27.599999999999998" stroke-linecap="round" stroke-linejoin="round" fill="none" /><rect x="1328" y="553" width="64" height="129" rx="27.599999999999998" fill="#252d3a" /><rect x="1615" y="553" width="64" height="129" rx="27.599999999999998" fill="#252d3a" /><path d="M1328 652 Q1291 686 1251 669" stroke="#252d3a" stroke-width="13.799999999999999" stroke-linecap="round" stroke-linejoin="round" fill="none" /><circle cx="1245" cy="673" r="19.549999999999997" fill="#ffcd3b" /><rect x="1480" y="330" width="280" height="130" rx="30" fill="#ffffff" stroke="#d3dae0" stroke-width="5"/><path d="M1560 395 q40 -40 80 0" stroke="#2377da" stroke-width="14" stroke-linecap="round" stroke-linejoin="round" fill="none" /><circle cx="1560" cy="395" r="10" fill="#2377da" /><circle cx="1640" cy="395" r="10" fill="#2377da" /></svg>