<svg xmlns="http://www.w3.org/2000/svg" viewBox="0 0 1920 1080" role="img" aria-hidden="true"><rect x="0" y="0" width="1920" height="1080" rx="0" fill="#ecf0f5" /><rect x="0" y="860" width="1920" height="220" rx="0" fill="#dde2e7" /><rect x="260" y="380" width="200" height="480" rx="34" fill="#1f2c39" /><rect x="285" y="420" width="150" height="150" rx="14" fill="#abd0ff" /><circle cx="320" cy="630" r="11" fill="#d3dae0" /><circle cx="360" cy="630" r="11" fill="#d3dae0" /><circle cx="400" cy="630" r="11" fill="#d3dae0" /><circle cx="320" cy="670" r="11" fill="#d3dae0" /><circle cx="360" cy="670" r="11" fill="#d3dae0" /><circle cx="400" cy="670" r="11" fill="#d3dae0" /><rect x="700" y="520" width="300" height="340" rx="30" fill="#ffffff" stroke="#d3dae0" stroke-width="5"/><circle cx="850" cy="600" r="36" fill="#2377da" /><rect x="740" y="690" width="220" height="18" rx="9" fill="#d3dae0" /><rect x="740" y="730" width="160" height="18" rx="9" fill="#d3dae0" /><rect x="1240" y="560" width="200" height="300" rx="24" fill="#465462" /><rect x="1270" y="600" width="140" height="14" rx="7" fill="#1f2c39" /><circle cx="1340" cy="720" r="20" fill="#70e3a0" /><path d="M1460 600 q60 60 0 120" stroke="#2377da" stroke-width="14" stroke-linecap="round" stroke-linejoin="round" fill="none" /><path d="M1500 570 q100 90 0 180" stroke="#2377da" stroke-width="14" stroke-linecap="round" stroke-linejoin="round" fill="none" /><path d="M1540 540 q140 120 0 240" stroke="#2377da" stroke-width="14" stroke-linecap="round" stroke-linejoin="round" fill="none" /><rect x="1620" y="640" width="90" height="220" rx="26" fill="#1f2c39" /><rect x="1636" y="668" width="58" height="56" rx="8" fill="#abd0ff" /></svg>