<svg xmlns="http://www.w3.org/2000/svg" viewBox="0 0 1920 1080" role="img" aria-hidden="true"><rect x="0" y="0" width="1920" height="1080" rx="0" fill="#ecf0f5" /><rect x="220" y="160" width="1480" height="640" rx="36" fill="#ffffff" stroke="#d3dae0" stroke-width="6"/><circle cx="360" cy="480" r="64" fill="#2377da" /><circle cx="360" cy="480" r="24" fill="#ffffff" /><line x1="424" y1="480" x2="600" y2="480" stroke="#a4afbb" stroke-width="12" stroke-linecap="round" /><path d="M700 380 L800 480 L700 580 L600 480 Z" stroke="#ffcd3b" stroke-width="6" stroke-linecap="round" stroke-linejoin="round" fill="#ffcd3b" /><line x1="800" y1="480" x2="920" y2="480" stroke="#a4afbb" stroke-width="12" stroke-linecap="round" /><rect x="920" y="420" width="220" height="120" rx="20" fill="#abd0ff" /><path d="M700 580 V670 H920" stroke="#a4afbb" stroke-width="12" stroke-linecap="round" stroke-linejoin="round" fill="none" /><rect x="920" y="620" width="220" height="100" rx="20" fill="#abd0ff" /><line x1="1140" y1="480" x2="1260" y2="480" stroke="#a4afbb" stroke-width="12" stroke-linecap="round" /><rect x="1260" y="420" width="220" height="120" rx="20" fill="#3a91ee" /><line x1="1480" y1="480" x2="1520" y2="480" stroke="#a4afbb" stroke-width="12" stroke-linecap="round" /><circle cx="1580" cy="480" r="60" fill="#70e3a0" /><path d="M1552 482 L1574 506 L1612 460" stroke="#1f2c39" stroke-width="14" stroke-linecap="round" stroke-linejoin="round" fill="none" /></svg>