<svg xmlns="http://www.w3.org/2000/svg" viewBox="0 0 1920 1080" role="img" aria-hidden="true"><rect x="0" y="0" width="1920" height="1080" rx="0" fill="#ecf0f5" /><rect x="0" y="860" width="1920" height="220" rx="0" fill="#dde2e7" /><rect x="1000" y="500" width="340" height="360" rx="10" fill="#ffffff" stroke="#d3dae0" stroke-width="5"/><rect x="990" y="482" width="360" height="30" rx="8" fill="#2377da" /><rect x="1056" y="540" width="98" height="70" rx="6" fill="#abd0ff" /><rect x="1186" y="540" width="98" height="70" rx="6" fill="#abd0ff" /><rect x="1056" y="644" width="98" height="70" rx="6" fill="#abd0ff" /><rect x="1186" y="644" width="98" height="70" rx="6" fill="#abd0ff" /><rect x="1056" y="748" width="98" height="70" rx="6" fill="#abd0ff" /><rect x="1186" y="748" width="98" height="70" rx="6" fill="#abd0ff" /><rect x="1132" y="760" width="76" height="100" rx="8" fill="#1f2c39" /><rect x="280" y="620" width="230" height="240" rx="10" fill="#ffffff" stroke="#d3dae0" stroke-width="5"/><rect x="318" y="660" width="66" height="70" rx="6" fill="#abd0ff" /><rect x="405" y="660" width="66" height="70" rx="6" fill="#abd0ff" /><rect x="318" y="764" width="66" height="70" rx="6" fill="#abd0ff" /><rect x="405" y="764" width="66" height="70" rx="6" fill="#abd0ff" /><rect x="640" y="660" width="200" height="200" rx="10" fill="#ffffff" stroke="#d3dae0" stroke-width="5"/><rect x="673" y="700" width="58" height="70" rx="6" fill="#abd0ff" /><rect x="749" y="700" width="58" height="70" rx="6" fill="#abd0ff" /><rect x="1560" y="600" width="230" height="260" rx="10" fill="#ffffff" stroke="#d3dae0" stroke-width="5"/><rect x="1598" y="640" width="66" height="70" rx="6" fill="#abd0ff" /><rect x="1685" y="640" width="66" height="70" rx="6" fill="#abd0ff" /><rect x="1598" y="744" width="66" height="70" rx="6" fill="#abd0ff" /><rect x="1685" y="744" width="66" height="70" rx="6" fill="#abd0ff" /><path d="M1170 458 C1079 367 1102 289 1170 289 C1238 289 1261 367 1170 458 Z" stroke="#ffcd3b" stroke-width="4" stroke-linecap="round" stroke-linejoin="round" fill="#ffcd3b" /><circle cx="1170" cy="354" r="23.400000000000002" fill="#1f2c39" /><path d="M395 594 C332 531 348 477 395 477 C442 477 458 531 395 594 Z" stroke="#3a91ee" stroke-width="4" stroke-linecap="round" stroke-linejoin="round" fill="#3a91ee" /><circle cx="395" cy="522" r="16.2" fill="#1f2c39" /><path d="M740 644 C677 581 693 527 740 527 C787 527 803 581 740 644 Z" stroke="#3a91ee" stroke-width="4" stroke-linecap="round" stroke-linejoin="round" fill="#3a91ee" /><circle cx="740" cy="572" r="16.2" fill="#1f2c39" /><path d="M1675 574 C1612 511 1628 457 1675 457 C1722 457 1738 511 1675 574 Z" stroke="#3a91ee" stroke-width="4" stroke-linecap="round" stroke-linejoin="round" fill="#3a91ee" /><circle cx="1675" cy="502" r="16.2" fill="#1f2c39" /><path d="M395 570 C600 400 1000 340 1150 370" stroke="#2377da" stroke-width="11" stroke-linecap="round" stroke-linejoin="round" fill="none" stroke-dasharray="0 28"/><path d="M740 620 C850 480 1000 400 1150 380" stroke="#2377da" stroke-width="11" stroke-linecap="round" stroke-linejoin="round" fill="none" stroke-dasharray="0 28"/><path d="M1675 550 C1600 420 1400 370 1190 375" stroke="#2377da" stroke-width="11" stroke-linecap="round" stroke-linejoin="round" fill="none" stroke-dasharray="0 28"/></svg>