<svg xmlns="http://www.w3.org/2000/svg" viewBox="0 0 1920 1080" role="img" aria-hidden="true"><rect x="0" y="0" width="1920" height="1080" rx="0" fill="#ecf0f5" /><rect x="0" y="860" width="1920" height="220" rx="0" fill="#dde2e7" /><rect x="640" y="560" width="640" height="300" rx="26" fill="#1f2c39" /><rect x="670" y="600" width="580" height="40" rx="12" fill="#465462" /><circle cx="700" cy="700" r="16" fill="#70e3a0" /><circle cx="770" cy="700" r="16" fill="#70e3a0" /><circle cx="840" cy="700" r="16" fill="#70e3a0" /><circle cx="910" cy="700" r="16" fill="#ffcd3b" /><circle cx="980" cy="700" r="16" fill="#70e3a0" /><circle cx="1050" cy="700" r="16" fill="#70e3a0" /><circle cx="1120" cy="700" r="16" fill="#abd0ff" /><circle cx="1190" cy="700" r="16" fill="#abd0ff" /><rect x="690" y="760" width="42" height="40" rx="8" fill="#465462" /><rect x="760" y="760" width="42" height="40" rx="8" fill="#465462" /><rect x="830" y="760" width="42" height="40" rx="8" fill="#465462" /><rect x="900" y="760" width="42" height="40" rx="8" fill="#465462" /><rect x="970" y="760" width="42" height="40" rx="8" fill="#465462" /><rect x="1040" y="760" width="42" height="40" rx="8" fill="#465462" /><rect x="1110" y="760" width="42" height="40" rx="8" fill="#465462" /><rect x="1180" y="760" width="42" height="40" rx="8" fill="#465462" /><rect x="170" y="612" width="292" height="248" rx="26" fill="#252d3a" /><rect x="202" y="644" width="140" height="80" rx="8" fill="#abd0ff" /><circle cx="228" cy="760" r="8" fill="#d3dae0" /><circle cx="268" cy="760" r="8" fill="#d3dae0" /><circle cx="308" cy="760" r="8" fill="#d3dae0" /><circle cx="228" cy="790" r="8" fill="#d3dae0" /><circle cx="268" cy="790" r="8" fill="#d3dae0" /><circle cx="308" cy="790" r="8" fill="#d3dae0" /><circle cx="228" cy="820" r="8" fill="#d3dae0" /><circle cx="268" cy="820" r="8" fill="#d3dae0" /><circle cx="308" cy="820" r="8" fill="#d3dae0" /><rect x="368" y="594" width="78" height="274" rx="36" fill="#465462" /><rect x="1500" y="520" width="170" height="340" rx="28" fill="#1f2c39" /><rect x="1514" y="544" width="142" height="292" rx="14" fill="#ffffff" /><circle cx="1585" cy="612" r="32" fill="#2377da" /><rect x="1534" y="680" width="102" height="12" rx="6" fill="#d3dae0" /><rect x="1552" y="706" width="66" height="12" rx="6" fill="#d3dae0" /><circle cx="1585" cy="782" r="27" fill="#ffcd3b" /><path d="M460 760 C540 790 600 800 690 800" stroke="#2377da" stroke-width="12" stroke-linecap="round" stroke-linejoin="round" fill="none" stroke-dasharray="0 26"/><path d="M1280 720 C1360 720 1420 700 1500 680" stroke="#2377da" stroke-width="12" stroke-linecap="round" stroke-linejoin="round" fill="none" stroke-dasharray="0 26"/><circle cx="897" cy="339" r="55.800000000000004" fill="#ffffff" /><circle cx="960" cy="308" r="76.5" fill="#ffffff" /><circle cx="1036" cy="334" r="63.0" fill="#ffffff" /><rect x="843" y="339" width="256" height="63" rx="31.5" fill="#ffffff" /><path d="M960 430 V540" stroke="#2377da" stroke-width="12" stroke-linecap="round" stroke-linejoin="round" fill="none" stroke-dasharray="0 26"/></svg>