<svg xmlns="http://www.w3.org/2000/svg" viewBox="0 0 1920 1080" role="img" aria-hidden="true"><rect x="0" y="0" width="1920" height="1080" rx="0" fill="#ecf0f5" /><rect x="0" y="860" width="1920" height="220" rx="0" fill="#dde2e7" /><rect x="260" y="250" width="1000" height="610" rx="24" fill="#ffffff" stroke="#d3dae0" stroke-width="5"/><rect x="260" y="250" width="1000" height="62" rx="24" fill="#1f2c39" /><rect x="260" y="286" width="1000" height="26" rx="0" fill="#1f2c39" /><circle cx="298" cy="281" r="9" fill="#f0625d" /><circle cx="328" cy="281" r="9" fill="#ffcd3b" /><circle cx="358" cy="281" r="9" fill="#70e3a0" /><rect x="260" y="312" width="230" height="548" rx="0" fill="#f1f5f8" /><circle cx="310" cy="382" r="18" fill="#2377da" /><rect x="346" y="374" width="110" height="16" rx="8" fill="#d3dae0" /><circle cx="310" cy="462" r="18" fill="#d3dae0" /><rect x="346" y="454" width="110" height="16" rx="8" fill="#d3dae0" /><circle cx="310" cy="542" r="18" fill="#d3dae0" /><rect x="346" y="534" width="110" height="16" rx="8" fill="#d3dae0" /><circle cx="310" cy="622" r="18" fill="#d3dae0" /><rect x="346" y="614" width="110" height="16" rx="8" fill="#d3dae0" /><circle cx="310" cy="702" r="18" fill="#d3dae0" /><rect x="346" y="694" width="110" height="16" rx="8" fill="#d3dae0" /><rect x="530" y="362" width="380" height="18" rx="9" fill="#d3dae0" /><rect x="530" y="396" width="260" height="14" rx="7" fill="#abd0ff" /><rect x="1110" y="362" width="84" height="44" rx="22" fill="#2377da" /><circle cx="1172" cy="384" r="17" fill="#ffffff" /><rect x="530" y="472" width="380" height="18" rx="9" fill="#d3dae0" /><rect x="530" y="506" width="260" height="14" rx="7" fill="#abd0ff" /><rect x="1110" y="472" width="84" height="44" rx="22" fill="#2377da" /><circle cx="1172" cy="494" r="17" fill="#ffffff" /><rect x="530" y="582" width="380" height="18" rx="9" fill="#d3dae0" /><rect x="530" y="616" width="260" height="14" rx="7" fill="#abd0ff" /><rect x="1110" y="582" width="84" height="44" rx="22" fill="#d3dae0" /><circle cx="1132" cy="604" r="17" fill="#ffffff" /><rect x="530" y="692" width="380" height="18" rx="9" fill="#d3dae0" /><rect x="530" y="726" width="260" height="14" rx="7" fill="#abd0ff" /><rect x="1110" y="692" width="84" height="44" rx="22" fill="#2377da" /><circle cx="1172" cy="714" r="17" fill="#ffffff" /><rect x="1400" y="612" width="292" height="248" rx="26" fill="#252d3a" /><rect x="1432" y="644" width="140" height="80" rx="8" fill="#abd0ff" /><circle cx="1458" cy="760" r="8" fill="#d3dae0" /><circle cx="1498" cy="760" r="8" fill="#d3dae0" /><circle cx="1538" cy="760" r="8" fill="#d3dae0" /><circle cx="1458" cy="790" r="8" fill="#d3dae0" /><circle cx="1498" cy="790" r="8" fill="#d3dae0" /><circle cx="1538" cy="790" r="8" fill="#d3dae0" /><circle cx="1458" cy="820" r="8" fill="#d3dae0" /><circle cx="1498" cy="820" r="8" fill="#d3dae0" /><circle cx="1538" cy="820" r="8" fill="#d3dae0" /><rect x="1598" y="594" width="78" height="274" rx="36" fill="#465462" /><path d="M1260 560 C1310 560 1340 600 1390 650" stroke="#2377da" stroke-width="12" stroke-linecap="round" stroke-linejoin="round" fill="none" stroke-dasharray="0 28"/></svg>