<svg xmlns="http://www.w3.org/2000/svg" viewBox="0 0 1920 1080" role="img" aria-hidden="true"><rect x="0" y="0" width="1920" height="1080" rx="0" fill="#ecf0f5" /><rect x="0" y="860" width="1920" height="220" rx="0" fill="#dde2e7" /><rect x="550" y="338" width="700" height="474" rx="26" fill="#1f2c39" /><rect x="577" y="365" width="646" height="420" rx="8" fill="#ffffff" /><rect x="607" y="405" width="180" height="140" rx="12" fill="#f1f5f8" /><rect x="627" y="420" width="100" height="70" rx="8" fill="#2377da" /><rect x="817" y="405" width="180" height="140" rx="12" fill="#f1f5f8" /><rect x="837" y="420" width="100" height="70" rx="8" fill="#ffcd3b" /><rect x="1027" y="405" width="180" height="140" rx="12" fill="#f1f5f8" /><rect x="1047" y="420" width="100" height="70" rx="8" fill="#3a91ee" /><rect x="607" y="575" width="180" height="140" rx="12" fill="#f1f5f8" /><rect x="627" y="590" width="100" height="70" rx="8" fill="#abd0ff" /><rect x="817" y="575" width="180" height="140" rx="12" fill="#f1f5f8" /><rect x="837" y="590" width="100" height="70" rx="8" fill="#a4afbb" /><rect x="1027" y="575" width="180" height="140" rx="12" fill="#f1f5f8" /><rect x="1047" y="590" width="100" height="70" rx="8" fill="#2377da" /><rect x="495" y="810" width="810" height="46" rx="22" fill="#a4afbb" /><rect x="1380" y="690" width="230" height="170" rx="14" fill="#ffcd3b" /><rect x="1380" y="690" width="230" height="44" rx="14" fill="#e6b52a" /><rect x="1470" y="690" width="50" height="170" rx="0" fill="#ffffff" opacity=".55"/><rect x="1560" y="770" width="170" height="90" rx="12" fill="#2377da" /><rect x="1625" y="770" width="40" height="90" rx="0" fill="#abd0ff" /><path d="M240 520 H300 L335 700 H600 L640 560 H320" stroke="#1f2c39" stroke-width="20" stroke-linecap="round" stroke-linejoin="round" fill="none" /><circle cx="380" cy="770" r="28" fill="#1f2c39" /><circle cx="560" cy="770" r="28" fill="#1f2c39" /></svg>